<mxfile host="Electron" modified="2024-07-25T01:33:47.582Z" agent="Mozilla/5.0 (Windows NT 10.0; Win64; x64) AppleWebKit/537.36 (KHTML, like Gecko) draw.io/23.1.5 Chrome/120.0.6099.109 Electron/28.1.0 Safari/537.36" etag="peJ4dglqeMaDzcvuIIx1" version="23.1.5" type="device">
  <diagram name="페이지-1" id="zpjcK3gLOIPXgqY-clQR">
    <mxGraphModel dx="800" dy="823" grid="1" gridSize="10" guides="1" tooltips="1" connect="1" arrows="1" fold="1" page="1" pageScale="1" pageWidth="850" pageHeight="1100" math="0" shadow="0">
      <root>
        <mxCell id="0" />
        <mxCell id="1" parent="0" />
        <mxCell id="_M7pWx5cGkFJa6dH3uoc-3" value="EmployeeList" style="swimlane;fontStyle=1;align=center;verticalAlign=top;childLayout=stackLayout;horizontal=1;startSize=26;horizontalStack=0;resizeParent=1;resizeParentMax=0;resizeLast=0;collapsible=1;marginBottom=0;whiteSpace=wrap;html=1;" vertex="1" parent="1">
          <mxGeometry x="100" y="410" width="320" height="200" as="geometry" />
        </mxCell>
        <mxCell id="_M7pWx5cGkFJa6dH3uoc-4" value="- employeList&amp;lt;Employee&amp;gt;(): HashSet" style="text;strokeColor=none;fillColor=none;align=left;verticalAlign=top;spacingLeft=4;spacingRight=4;overflow=hidden;rotatable=0;points=[[0,0.5],[1,0.5]];portConstraint=eastwest;whiteSpace=wrap;html=1;" vertex="1" parent="_M7pWx5cGkFJa6dH3uoc-3">
          <mxGeometry y="26" width="320" height="26" as="geometry" />
        </mxCell>
        <mxCell id="_M7pWx5cGkFJa6dH3uoc-5" value="" style="line;strokeWidth=1;fillColor=none;align=left;verticalAlign=middle;spacingTop=-1;spacingLeft=3;spacingRight=3;rotatable=0;labelPosition=right;points=[];portConstraint=eastwest;strokeColor=inherit;" vertex="1" parent="_M7pWx5cGkFJa6dH3uoc-3">
          <mxGeometry y="52" width="320" height="8" as="geometry" />
        </mxCell>
        <mxCell id="_M7pWx5cGkFJa6dH3uoc-6" value="+ EmployeeList()&lt;br&gt;+ addEmployee(Employee): void&lt;br&gt;+ getEmployee(String): Employee&lt;br&gt;+ updateEmployee(String, Employee): void&lt;br&gt;+ removeEmployee(Employee): void" style="text;strokeColor=none;fillColor=none;align=left;verticalAlign=top;spacingLeft=4;spacingRight=4;overflow=hidden;rotatable=0;points=[[0,0.5],[1,0.5]];portConstraint=eastwest;whiteSpace=wrap;html=1;" vertex="1" parent="_M7pWx5cGkFJa6dH3uoc-3">
          <mxGeometry y="60" width="320" height="140" as="geometry" />
        </mxCell>
        <mxCell id="_M7pWx5cGkFJa6dH3uoc-7" value="Employee" style="swimlane;fontStyle=1;align=center;verticalAlign=top;childLayout=stackLayout;horizontal=1;startSize=26;horizontalStack=0;resizeParent=1;resizeParentMax=0;resizeLast=0;collapsible=1;marginBottom=0;whiteSpace=wrap;html=1;" vertex="1" parent="1">
          <mxGeometry x="60" y="700" width="240" height="170" as="geometry" />
        </mxCell>
        <mxCell id="_M7pWx5cGkFJa6dH3uoc-8" value="- employeeID: String&lt;br&gt;- name: String&lt;br&gt;- phone: String" style="text;strokeColor=none;fillColor=none;align=left;verticalAlign=top;spacingLeft=4;spacingRight=4;overflow=hidden;rotatable=0;points=[[0,0.5],[1,0.5]];portConstraint=eastwest;whiteSpace=wrap;html=1;" vertex="1" parent="_M7pWx5cGkFJa6dH3uoc-7">
          <mxGeometry y="26" width="240" height="54" as="geometry" />
        </mxCell>
        <mxCell id="_M7pWx5cGkFJa6dH3uoc-9" value="" style="line;strokeWidth=1;fillColor=none;align=left;verticalAlign=middle;spacingTop=-1;spacingLeft=3;spacingRight=3;rotatable=0;labelPosition=right;points=[];portConstraint=eastwest;strokeColor=inherit;" vertex="1" parent="_M7pWx5cGkFJa6dH3uoc-7">
          <mxGeometry y="80" width="240" height="8" as="geometry" />
        </mxCell>
        <mxCell id="_M7pWx5cGkFJa6dH3uoc-10" value="- Employee()&lt;br&gt;+ createEmployee(String...): Employee" style="text;strokeColor=none;fillColor=none;align=left;verticalAlign=top;spacingLeft=4;spacingRight=4;overflow=hidden;rotatable=0;points=[[0,0.5],[1,0.5]];portConstraint=eastwest;whiteSpace=wrap;html=1;" vertex="1" parent="_M7pWx5cGkFJa6dH3uoc-7">
          <mxGeometry y="88" width="240" height="82" as="geometry" />
        </mxCell>
        <mxCell id="_M7pWx5cGkFJa6dH3uoc-12" value="" style="endArrow=diamondThin;endFill=0;endSize=24;html=1;rounded=0;entryX=0.253;entryY=1.029;entryDx=0;entryDy=0;entryPerimeter=0;exitX=0.5;exitY=0;exitDx=0;exitDy=0;" edge="1" parent="1" source="_M7pWx5cGkFJa6dH3uoc-7" target="_M7pWx5cGkFJa6dH3uoc-6">
          <mxGeometry width="160" relative="1" as="geometry">
            <mxPoint x="360" y="820" as="sourcePoint" />
            <mxPoint x="520" y="820" as="targetPoint" />
          </mxGeometry>
        </mxCell>
        <mxCell id="_M7pWx5cGkFJa6dH3uoc-13" value="WorkShift" style="swimlane;fontStyle=1;align=center;verticalAlign=top;childLayout=stackLayout;horizontal=1;startSize=26;horizontalStack=0;resizeParent=1;resizeParentMax=0;resizeLast=0;collapsible=1;marginBottom=0;whiteSpace=wrap;html=1;" vertex="1" parent="1">
          <mxGeometry x="517" y="674" width="290" height="250" as="geometry" />
        </mxCell>
        <mxCell id="_M7pWx5cGkFJa6dH3uoc-14" value="- date: LocalDate&lt;br&gt;- startTime: LocalTime&lt;br&gt;- endTime: LocalTime&lt;br&gt;- amount: int&lt;br&gt;- wage: int&lt;br&gt;- employee: Employee&lt;br&gt;- options: WorkShiftOption" style="text;strokeColor=none;fillColor=none;align=left;verticalAlign=top;spacingLeft=4;spacingRight=4;overflow=hidden;rotatable=0;points=[[0,0.5],[1,0.5]];portConstraint=eastwest;whiteSpace=wrap;html=1;" vertex="1" parent="_M7pWx5cGkFJa6dH3uoc-13">
          <mxGeometry y="26" width="290" height="144" as="geometry" />
        </mxCell>
        <mxCell id="_M7pWx5cGkFJa6dH3uoc-15" value="" style="line;strokeWidth=1;fillColor=none;align=left;verticalAlign=middle;spacingTop=-1;spacingLeft=3;spacingRight=3;rotatable=0;labelPosition=right;points=[];portConstraint=eastwest;strokeColor=inherit;" vertex="1" parent="_M7pWx5cGkFJa6dH3uoc-13">
          <mxGeometry y="170" width="290" height="8" as="geometry" />
        </mxCell>
        <mxCell id="_M7pWx5cGkFJa6dH3uoc-16" value="+ WorkShift(Employee)&lt;div&gt;&lt;br/&gt;&lt;/div&gt;" style="text;strokeColor=none;fillColor=none;align=left;verticalAlign=top;spacingLeft=4;spacingRight=4;overflow=hidden;rotatable=0;points=[[0,0.5],[1,0.5]];portConstraint=eastwest;whiteSpace=wrap;html=1;" vertex="1" parent="_M7pWx5cGkFJa6dH3uoc-13">
          <mxGeometry y="178" width="290" height="72" as="geometry" />
        </mxCell>
        <mxCell id="_M7pWx5cGkFJa6dH3uoc-17" value="" style="endArrow=none;html=1;edgeStyle=orthogonalEdgeStyle;rounded=0;exitX=1;exitY=0.5;exitDx=0;exitDy=0;entryX=-0.01;entryY=0.368;entryDx=0;entryDy=0;entryPerimeter=0;" edge="1" parent="1" source="_M7pWx5cGkFJa6dH3uoc-8" target="_M7pWx5cGkFJa6dH3uoc-14">
          <mxGeometry relative="1" as="geometry">
            <mxPoint x="360" y="820" as="sourcePoint" />
            <mxPoint x="520" y="820" as="targetPoint" />
          </mxGeometry>
        </mxCell>
        <mxCell id="_M7pWx5cGkFJa6dH3uoc-18" value="parent" style="edgeLabel;resizable=0;html=1;align=left;verticalAlign=bottom;" connectable="0" vertex="1" parent="_M7pWx5cGkFJa6dH3uoc-17">
          <mxGeometry x="-1" relative="1" as="geometry" />
        </mxCell>
        <mxCell id="_M7pWx5cGkFJa6dH3uoc-19" value="child" style="edgeLabel;resizable=0;html=1;align=right;verticalAlign=bottom;" connectable="0" vertex="1" parent="_M7pWx5cGkFJa6dH3uoc-17">
          <mxGeometry x="1" relative="1" as="geometry" />
        </mxCell>
        <mxCell id="_M7pWx5cGkFJa6dH3uoc-20" value="WorkList" style="swimlane;fontStyle=1;align=center;verticalAlign=top;childLayout=stackLayout;horizontal=1;startSize=26;horizontalStack=0;resizeParent=1;resizeParentMax=0;resizeLast=0;collapsible=1;marginBottom=0;whiteSpace=wrap;html=1;" vertex="1" parent="1">
          <mxGeometry x="520" y="392" width="320" height="218" as="geometry" />
        </mxCell>
        <mxCell id="_M7pWx5cGkFJa6dH3uoc-21" value="- workShiftList&amp;lt;WorkShift&amp;gt;(): ArrayList&lt;br&gt;- workingDays: int" style="text;strokeColor=none;fillColor=none;align=left;verticalAlign=top;spacingLeft=4;spacingRight=4;overflow=hidden;rotatable=0;points=[[0,0.5],[1,0.5]];portConstraint=eastwest;whiteSpace=wrap;html=1;" vertex="1" parent="_M7pWx5cGkFJa6dH3uoc-20">
          <mxGeometry y="26" width="320" height="44" as="geometry" />
        </mxCell>
        <mxCell id="_M7pWx5cGkFJa6dH3uoc-22" value="" style="line;strokeWidth=1;fillColor=none;align=left;verticalAlign=middle;spacingTop=-1;spacingLeft=3;spacingRight=3;rotatable=0;labelPosition=right;points=[];portConstraint=eastwest;strokeColor=inherit;" vertex="1" parent="_M7pWx5cGkFJa6dH3uoc-20">
          <mxGeometry y="70" width="320" height="8" as="geometry" />
        </mxCell>
        <mxCell id="_M7pWx5cGkFJa6dH3uoc-23" value="+ WorkList()&lt;br&gt;+ addWorkShift(): void&lt;br&gt;+ getWorkShift(): void&lt;br&gt;+ updateWorkShift(): void&lt;br&gt;+ deleteWorkShift(): void" style="text;strokeColor=none;fillColor=none;align=left;verticalAlign=top;spacingLeft=4;spacingRight=4;overflow=hidden;rotatable=0;points=[[0,0.5],[1,0.5]];portConstraint=eastwest;whiteSpace=wrap;html=1;" vertex="1" parent="_M7pWx5cGkFJa6dH3uoc-20">
          <mxGeometry y="78" width="320" height="140" as="geometry" />
        </mxCell>
        <mxCell id="_M7pWx5cGkFJa6dH3uoc-24" value="" style="endArrow=diamondThin;endFill=0;endSize=24;html=1;rounded=0;entryX=0.441;entryY=1.021;entryDx=0;entryDy=0;entryPerimeter=0;exitX=0.5;exitY=0;exitDx=0;exitDy=0;" edge="1" parent="1" source="_M7pWx5cGkFJa6dH3uoc-13" target="_M7pWx5cGkFJa6dH3uoc-23">
          <mxGeometry width="160" relative="1" as="geometry">
            <mxPoint x="360" y="820" as="sourcePoint" />
            <mxPoint x="520" y="820" as="targetPoint" />
          </mxGeometry>
        </mxCell>
        <mxCell id="_M7pWx5cGkFJa6dH3uoc-25" value="WorkShiftOption" style="swimlane;fontStyle=1;align=center;verticalAlign=top;childLayout=stackLayout;horizontal=1;startSize=26;horizontalStack=0;resizeParent=1;resizeParentMax=0;resizeLast=0;collapsible=1;marginBottom=0;whiteSpace=wrap;html=1;" vertex="1" parent="1">
          <mxGeometry x="910" y="712" width="270" height="170" as="geometry" />
        </mxCell>
        <mxCell id="_M7pWx5cGkFJa6dH3uoc-26" value="&lt;div&gt;- options&amp;lt;String, ArrayList&amp;lt;Integer&amp;gt;(): HashMap&lt;/div&gt;" style="text;strokeColor=none;fillColor=none;align=left;verticalAlign=top;spacingLeft=4;spacingRight=4;overflow=hidden;rotatable=0;points=[[0,0.5],[1,0.5]];portConstraint=eastwest;whiteSpace=wrap;html=1;" vertex="1" parent="_M7pWx5cGkFJa6dH3uoc-25">
          <mxGeometry y="26" width="270" height="54" as="geometry" />
        </mxCell>
        <mxCell id="_M7pWx5cGkFJa6dH3uoc-27" value="" style="line;strokeWidth=1;fillColor=none;align=left;verticalAlign=middle;spacingTop=-1;spacingLeft=3;spacingRight=3;rotatable=0;labelPosition=right;points=[];portConstraint=eastwest;strokeColor=inherit;" vertex="1" parent="_M7pWx5cGkFJa6dH3uoc-25">
          <mxGeometry y="80" width="270" height="8" as="geometry" />
        </mxCell>
        <mxCell id="_M7pWx5cGkFJa6dH3uoc-28" value="&lt;div&gt;&lt;br/&gt;&lt;/div&gt;" style="text;strokeColor=none;fillColor=none;align=left;verticalAlign=top;spacingLeft=4;spacingRight=4;overflow=hidden;rotatable=0;points=[[0,0.5],[1,0.5]];portConstraint=eastwest;whiteSpace=wrap;html=1;" vertex="1" parent="_M7pWx5cGkFJa6dH3uoc-25">
          <mxGeometry y="88" width="270" height="82" as="geometry" />
        </mxCell>
        <mxCell id="_M7pWx5cGkFJa6dH3uoc-33" value="" style="endArrow=diamondThin;endFill=0;endSize=24;html=1;rounded=0;entryX=1;entryY=0.5;entryDx=0;entryDy=0;exitX=-0.004;exitY=0.63;exitDx=0;exitDy=0;exitPerimeter=0;" edge="1" parent="1" source="_M7pWx5cGkFJa6dH3uoc-26" target="_M7pWx5cGkFJa6dH3uoc-14">
          <mxGeometry width="160" relative="1" as="geometry">
            <mxPoint x="630" y="820" as="sourcePoint" />
            <mxPoint x="790" y="820" as="targetPoint" />
          </mxGeometry>
        </mxCell>
        <mxCell id="_M7pWx5cGkFJa6dH3uoc-34" value="SubTotal" style="swimlane;fontStyle=1;align=center;verticalAlign=top;childLayout=stackLayout;horizontal=1;startSize=26;horizontalStack=0;resizeParent=1;resizeParentMax=0;resizeLast=0;collapsible=1;marginBottom=0;whiteSpace=wrap;html=1;" vertex="1" parent="1">
          <mxGeometry x="516" y="70" width="320" height="258" as="geometry" />
        </mxCell>
        <mxCell id="_M7pWx5cGkFJa6dH3uoc-35" value="- subTotalAmount: int&lt;br&gt;- subTotalWage: int&lt;div&gt;- subTotalOvertime: int&lt;/div&gt;&lt;div&gt;- subTotal: int&lt;/div&gt;&lt;div&gt;- subOptionTotal: int&lt;/div&gt;" style="text;strokeColor=none;fillColor=none;align=left;verticalAlign=top;spacingLeft=4;spacingRight=4;overflow=hidden;rotatable=0;points=[[0,0.5],[1,0.5]];portConstraint=eastwest;whiteSpace=wrap;html=1;" vertex="1" parent="_M7pWx5cGkFJa6dH3uoc-34">
          <mxGeometry y="26" width="320" height="84" as="geometry" />
        </mxCell>
        <mxCell id="_M7pWx5cGkFJa6dH3uoc-36" value="" style="line;strokeWidth=1;fillColor=none;align=left;verticalAlign=middle;spacingTop=-1;spacingLeft=3;spacingRight=3;rotatable=0;labelPosition=right;points=[];portConstraint=eastwest;strokeColor=inherit;" vertex="1" parent="_M7pWx5cGkFJa6dH3uoc-34">
          <mxGeometry y="110" width="320" height="8" as="geometry" />
        </mxCell>
        <mxCell id="_M7pWx5cGkFJa6dH3uoc-37" value="&lt;div&gt;&lt;br/&gt;&lt;/div&gt;" style="text;strokeColor=none;fillColor=none;align=left;verticalAlign=top;spacingLeft=4;spacingRight=4;overflow=hidden;rotatable=0;points=[[0,0.5],[1,0.5]];portConstraint=eastwest;whiteSpace=wrap;html=1;" vertex="1" parent="_M7pWx5cGkFJa6dH3uoc-34">
          <mxGeometry y="118" width="320" height="140" as="geometry" />
        </mxCell>
        <mxCell id="_M7pWx5cGkFJa6dH3uoc-38" value="" style="endArrow=open;endFill=1;endSize=12;html=1;rounded=0;entryX=0.513;entryY=1.071;entryDx=0;entryDy=0;entryPerimeter=0;exitX=0.5;exitY=0;exitDx=0;exitDy=0;" edge="1" parent="1" source="_M7pWx5cGkFJa6dH3uoc-20" target="_M7pWx5cGkFJa6dH3uoc-37">
          <mxGeometry width="160" relative="1" as="geometry">
            <mxPoint x="630" y="490" as="sourcePoint" />
            <mxPoint x="790" y="490" as="targetPoint" />
          </mxGeometry>
        </mxCell>
        <mxCell id="_M7pWx5cGkFJa6dH3uoc-39" value="Total" style="swimlane;fontStyle=1;align=center;verticalAlign=top;childLayout=stackLayout;horizontal=1;startSize=26;horizontalStack=0;resizeParent=1;resizeParentMax=0;resizeLast=0;collapsible=1;marginBottom=0;whiteSpace=wrap;html=1;" vertex="1" parent="1">
          <mxGeometry x="930" y="55" width="320" height="288" as="geometry" />
        </mxCell>
        <mxCell id="_M7pWx5cGkFJa6dH3uoc-40" value="- totalAmount: int&lt;br&gt;- totalIncome: int&lt;br&gt;- incomeTax: int&lt;br&gt;- VAT: int&lt;br&gt;- salary: int&lt;br&gt;- billedAmount: int&lt;br&gt;- teamIncomeTax: int" style="text;strokeColor=none;fillColor=none;align=left;verticalAlign=top;spacingLeft=4;spacingRight=4;overflow=hidden;rotatable=0;points=[[0,0.5],[1,0.5]];portConstraint=eastwest;whiteSpace=wrap;html=1;" vertex="1" parent="_M7pWx5cGkFJa6dH3uoc-39">
          <mxGeometry y="26" width="320" height="114" as="geometry" />
        </mxCell>
        <mxCell id="_M7pWx5cGkFJa6dH3uoc-41" value="" style="line;strokeWidth=1;fillColor=none;align=left;verticalAlign=middle;spacingTop=-1;spacingLeft=3;spacingRight=3;rotatable=0;labelPosition=right;points=[];portConstraint=eastwest;strokeColor=inherit;" vertex="1" parent="_M7pWx5cGkFJa6dH3uoc-39">
          <mxGeometry y="140" width="320" height="8" as="geometry" />
        </mxCell>
        <mxCell id="_M7pWx5cGkFJa6dH3uoc-42" value="+ WorkList()&lt;br&gt;+ addWorkShift(): void&lt;br&gt;+ getWorkShift(): void&lt;br&gt;+ updateWorkShift(): void&lt;br&gt;+ deleteWorkShift(): void" style="text;strokeColor=none;fillColor=none;align=left;verticalAlign=top;spacingLeft=4;spacingRight=4;overflow=hidden;rotatable=0;points=[[0,0.5],[1,0.5]];portConstraint=eastwest;whiteSpace=wrap;html=1;" vertex="1" parent="_M7pWx5cGkFJa6dH3uoc-39">
          <mxGeometry y="148" width="320" height="140" as="geometry" />
        </mxCell>
        <mxCell id="_M7pWx5cGkFJa6dH3uoc-44" value="TaxRate" style="swimlane;fontStyle=1;align=center;verticalAlign=top;childLayout=stackLayout;horizontal=1;startSize=26;horizontalStack=0;resizeParent=1;resizeParentMax=0;resizeLast=0;collapsible=1;marginBottom=0;whiteSpace=wrap;html=1;" vertex="1" parent="1">
          <mxGeometry x="948" y="404" width="270" height="170" as="geometry" />
        </mxCell>
        <mxCell id="_M7pWx5cGkFJa6dH3uoc-45" value="&lt;div&gt;- VAT: double&lt;/div&gt;&lt;div&gt;- incomeTax: double&lt;/div&gt;" style="text;strokeColor=none;fillColor=none;align=left;verticalAlign=top;spacingLeft=4;spacingRight=4;overflow=hidden;rotatable=0;points=[[0,0.5],[1,0.5]];portConstraint=eastwest;whiteSpace=wrap;html=1;" vertex="1" parent="_M7pWx5cGkFJa6dH3uoc-44">
          <mxGeometry y="26" width="270" height="54" as="geometry" />
        </mxCell>
        <mxCell id="_M7pWx5cGkFJa6dH3uoc-46" value="" style="line;strokeWidth=1;fillColor=none;align=left;verticalAlign=middle;spacingTop=-1;spacingLeft=3;spacingRight=3;rotatable=0;labelPosition=right;points=[];portConstraint=eastwest;strokeColor=inherit;" vertex="1" parent="_M7pWx5cGkFJa6dH3uoc-44">
          <mxGeometry y="80" width="270" height="8" as="geometry" />
        </mxCell>
        <mxCell id="_M7pWx5cGkFJa6dH3uoc-47" value="&lt;div&gt;&lt;br/&gt;&lt;/div&gt;" style="text;strokeColor=none;fillColor=none;align=left;verticalAlign=top;spacingLeft=4;spacingRight=4;overflow=hidden;rotatable=0;points=[[0,0.5],[1,0.5]];portConstraint=eastwest;whiteSpace=wrap;html=1;" vertex="1" parent="_M7pWx5cGkFJa6dH3uoc-44">
          <mxGeometry y="88" width="270" height="82" as="geometry" />
        </mxCell>
        <mxCell id="_M7pWx5cGkFJa6dH3uoc-48" value="" style="endArrow=open;endFill=1;endSize=12;html=1;rounded=0;entryX=0;entryY=0.5;entryDx=0;entryDy=0;exitX=1;exitY=0.5;exitDx=0;exitDy=0;" edge="1" parent="1" source="_M7pWx5cGkFJa6dH3uoc-35" target="_M7pWx5cGkFJa6dH3uoc-40">
          <mxGeometry width="160" relative="1" as="geometry">
            <mxPoint x="780" y="410" as="sourcePoint" />
            <mxPoint x="780" y="338" as="targetPoint" />
          </mxGeometry>
        </mxCell>
        <mxCell id="_M7pWx5cGkFJa6dH3uoc-49" value="" style="endArrow=open;endFill=1;endSize=12;html=1;rounded=0;entryX=0.478;entryY=1.036;entryDx=0;entryDy=0;entryPerimeter=0;exitX=0.5;exitY=0;exitDx=0;exitDy=0;" edge="1" parent="1" source="_M7pWx5cGkFJa6dH3uoc-44" target="_M7pWx5cGkFJa6dH3uoc-42">
          <mxGeometry width="160" relative="1" as="geometry">
            <mxPoint x="840" y="415.06" as="sourcePoint" />
            <mxPoint x="840" y="343.06" as="targetPoint" />
          </mxGeometry>
        </mxCell>
      </root>
    </mxGraphModel>
  </diagram>
</mxfile>
